<svg xmlns="http://www.w3.org/2000/svg" width="100%" height="100%" viewBox="0 0 800 800">
  <g fill="none" stroke="#e0e0e0" stroke-width="1" opacity="0.5">
    <path d="M0 100 Q 200 150 400 100 T 800 100" />
    <path d="M0 200 Q 200 250 400 200 T 800 200" />
    <path d="M0 300 Q 200 350 400 300 T 800 300" />
    <path d="M0 400 Q 200 450 400 400 T 800 400" />
    <path d="M0 500 Q 200 550 400 500 T 800 500" />
    <path d="M0 600 Q 200 650 400 600 T 800 600" />
    <path d="M0 700 Q 200 750 400 700 T 800 700" />
    
    <path d="M100 0 Q 150 200 100 400 T 100 800" />
    <path d="M200 0 Q 250 200 200 400 T 200 800" />
    <path d="M300 0 Q 350 200 300 400 T 300 800" />
    <path d="M400 0 Q 450 200 400 400 T 400 800" />
    <path d="M500 0 Q 550 200 500 400 T 500 800" />
    <path d="M600 0 Q 650 200 600 400 T 600 800" />
    <path d="M700 0 Q 750 200 700 400 T 700 800" />
  </g>
</svg>
